<?xml version="1.0" standalone="no"?><!DOCTYPE svg PUBLIC "-//W3C//DTD SVG 1.1//EN" "http://www.w3.org/Graphics/SVG/1.1/DTD/svg11.dtd"><svg t="1757402062980" class="icon" viewBox="0 0 1024 1024" version="1.1" xmlns="http://www.w3.org/2000/svg" p-id="9640" xmlns:xlink="http://www.w3.org/1999/xlink" width="13" height="13"><path d="M1016.436 492.627c-14.172-87.685-48.205-172.756-102.131-247.849l25.309-25.308v-0.125c18.629-18.658 28.004-43.067 28.004-67.446 0-24.315-9.375-48.754-28.004-67.414v-0.156c-18.625-18.627-43.127-27.941-67.506-27.941-24.441 0-48.883 9.314-67.506 27.941l-0.063 0.031-25.321 25.337C704.137 55.779 619.065 21.709 531.381 7.539 410.93-11.931 285.476 6.321 174.15 62.202c-9 4.5-15.813 12.001-19.504 20.783l-0.125 0.125c-3.625 8.689-4.313 18.597-1.25 28.222 3.063 9.689 9.566 17.535 17.691 22.535 8.125 5.063 18.066 7.187 28.003 5.594 70.194-11.156 142.267-9.719 212.464 4.283 63.194 12.626 124.639 35.441 181.582 68.352v83.817L27.946 860.92C9.318 879.578 0.006 904.05 0.006 928.49c0 24.408 9.313 48.881 27.94 67.537h0.063C46.638 1014.688 71.074 1024 95.516 1024c24.378 0 48.756-9.313 67.385-27.973h0.188l565.005-565.033h83.821c32.939 56.944 55.693 118.391 68.318 181.584 14.004 70.195 15.441 142.266 4.25 212.461-1.563 9.971 0.625 19.879 5.629 28.035 5 8.096 12.874 14.596 22.561 17.658 9.629 3.064 19.566 2.346 28.191-1.25l0.125-0.125c8.816-3.688 16.316-10.5 20.816-19.502 55.881-111.357 74.134-236.808 54.631-357.228zM849.791 129.616l0.063-0.031c6.063-6.127 14.191-9.189 22.254-9.189 8 0 16.129 3.063 22.254 9.189v0.031l0.125-0.063c6.062 6.156 9.124 14.251 9.124 22.345 0 8.127-3.125 16.252-9.124 22.379l-0.125-0.063-20.434 20.431a593.28 593.28 0 0 0-21.699-22.9 592.524 592.524 0 0 0-22.887-21.681l20.449-20.448z m-731.96 821.158v0.031l0.063 0.063c-6.188 6.096-14.25 9.127-22.378 9.127-8.063 0-16.188-3.094-22.254-9.189l-0.063-0.031c-6.125-6.125-9.188-14.221-9.188-22.283 0-8.096 3.063-16.191 9.188-22.315l546.066-546.063 44.582 44.584-546.016 546.076z m835.411-279.065a642.896 642.896 0 0 0-10.25-71.633 657.842 657.842 0 0 0-85.951-217.837l-9.438-15.252H716.65l-59.633-59.633V176.403l-15.25-9.439c-68.135-42.161-142.016-70.82-217.838-85.979-23.69-4.719-47.569-8.156-71.635-10.252 55.943-9.156 113.075-9.25 169.082-0.188 104.451 16.879 204.902 65.696 285.662 146.425 80.697 80.76 129.574 181.209 146.453 285.657 9.001 55.975 8.939 113.139-0.249 169.082z" p-id="9641" fill="#1296db"></path></svg>