<?xml version="1.0" standalone="no"?><!DOCTYPE svg PUBLIC "-//W3C//DTD SVG 1.1//EN" "http://www.w3.org/Graphics/SVG/1.1/DTD/svg11.dtd"><svg t="1757408019881" class="icon" viewBox="0 0 1024 1024" version="1.1" xmlns="http://www.w3.org/2000/svg" p-id="2199" xmlns:xlink="http://www.w3.org/1999/xlink" width="13" height="13"><path d="M856.4 785.7L707.8 637.1C744.9 585.5 765 523.8 765 459c0-81.7-31.8-158.6-89.6-216.4C617.6 184.8 540.7 153 459 153s-158.6 31.8-216.4 89.6C184.8 300.4 153 377.2 153 459s31.8 158.6 89.6 216.4C300.4 733.2 377.2 765 459 765c64.8 0 126.5-20 178.1-57.1l148.5 148.5 70.8-70.7zM313.3 604.6c-80.3-80.3-80.3-211 0-291.3 40.2-40.2 92.9-60.2 145.7-60.2 52.8 0 105.5 20.1 145.7 60.2C643.6 352.2 665 404 665 459s-21.4 106.8-60.3 145.7S514 665 459 665s-106.8-21.4-145.7-60.4z" p-id="2200"></path></svg>